<?xml version="1.0" encoding="utf-8"?>
<!-- Generator: Adobe Illustrator 21.1.0, SVG Export Plug-In . SVG Version: 6.00 Build 0)  -->
<svg version="1.1" id="Слой_1" xmlns="http://www.w3.org/2000/svg" xmlns:xlink="http://www.w3.org/1999/xlink" x="0px" y="0px"
	 viewBox="0 0 848 520" style="enable-background:new 0 0 848 520;" xml:space="preserve">
<style type="text/css">
	.st0{fill:none;stroke:#AAA2A2;stroke-width:2.2287;stroke-opacity:0.4;}
	.st1{fill:none;stroke:#AAA2A2;stroke-width:5.5718;stroke-opacity:0.4;}
	.st2{fill:none;stroke:#AAA2A2;stroke-width:3.3431;stroke-opacity:0.4;}
	.st3{fill:none;stroke:#AAA2A2;stroke-width:52.3754;stroke-opacity:0.4;}
	.st4{fill:none;stroke:#AAA2A2;stroke-width:4.4575;stroke-opacity:0.4;}
	.st5{fill:none;stroke:#AAA2A2;stroke-width:15.6012;stroke-opacity:0.4;}
	.st6{fill:none;stroke:#AAA2A2;stroke-width:22.2874;stroke-opacity:0.4;}
	.st7{fill:none;stroke:#AAA2A2;stroke-width:164.9267;stroke-opacity:0.4;}
	.st8{fill:none;stroke:#AAA2A2;stroke-width:13.3724;stroke-opacity:0.4;}
	.st9{fill:none;stroke:#AAA2A2;stroke-width:18.9443;stroke-opacity:0.4;}
	.st10{fill:none;stroke:#AAA2A2;stroke-width:42.346;stroke-opacity:0.4;}
	.st11{fill:none;stroke:#B7A192;stroke-width:2.2287;stroke-opacity:0.4;}
	.st12{fill:none;stroke:#E2DDC5;stroke-width:5.5718;stroke-opacity:0.4;}
	.st13{fill:none;stroke:#96BBBC;stroke-width:3.3431;stroke-opacity:0.4;}
	.st14{fill:none;stroke:#DAD8E2;stroke-width:52.3754;stroke-opacity:0.4;}
	.st15{fill:none;stroke:#B2D6B4;stroke-width:4.4575;stroke-opacity:0.4;}
	.st16{fill:none;stroke:#9BBDCE;stroke-width:15.6012;stroke-opacity:0.4;}
	.st17{fill:none;stroke:#C1A3B3;stroke-width:22.2874;stroke-opacity:0.4;}
	.st18{fill:none;stroke:#DDDDDD;stroke-width:15.6012;stroke-opacity:0.4;}
	.st19{fill:none;stroke:#6975BF;stroke-width:164.9267;stroke-opacity:0.4;}
	.st20{fill:none;stroke:#4F97A3;stroke-width:13;stroke-opacity:0.4;}
	.st21{fill:none;stroke:#316293;stroke-width:18.9443;stroke-opacity:0.4;}
	.st22{fill:none;stroke:#CCC0CE;stroke-width:18.9443;stroke-opacity:0.4;}
	.st23{fill:none;stroke:#BF698E;stroke-width:42.346;stroke-opacity:0.4;}
	.st24{fill:#BDBACC;}
	.st25{fill:#494343;}
	.st26{font-family:'Roboto-Medium';}
	.st27{font-size:11px;}
	.st28{fill:#7990BF;}
	.st29{fill:#333333;}
	.st30{fill:#DDDDDD;}
	.st31{fill:#69BF75;}
	.st32{font-size:10px;}
	.st33{fill:#E2DDC5;}
	.st34{fill:#CEA5B8;}
	.st35{fill:#A6C7DD;}
	.st36{fill:#848DB2;}
	.st37{font-size:12px;}
	.st38{fill:#C2B7C4;}
	.st39{fill:#B0CCCC;}
	.st40{fill:#DDCCD6;}
	.st41{fill:#75AAAF;}
	.st42{fill:#BF8E69;}
	.st43{fill:#AAA2A2;}
	.st44{fill:#383838;}
	.st45{fill:#332F2D;}
	.st46{font-family:'ArialMT';}
</style>
<g transform="translate(0, 10)">
	<g>
		<path class="st0" d="M5,61.1c208.3,0,208.3-60,416.5-60"/>
		<path class="st1" d="M5,65c208.3,0,208.3-50,416.5-50"/>
		<path class="st2" d="M5,73.9c208.3,0,208.3-30,416.5-30"/>
		<path class="st3" d="M5,248.9c208.3,0,208.3,50,416.5,50"/>
		<path class="st4" d="M5,70c208.3,0,208.3-40,416.5-40"/>
		<path class="st5" d="M5,131.3c208.3,0,208.3,10,416.5,10"/>
		<path class="st6" d="M5,169.2c208.3,0,208.3,30,416.5,30"/>
		<path class="st5" d="M5,96.8c208.3,0,208.3-10,416.5-10"/>
		<path class="st7" d="M5,357.5c208.3,0,208.3,60,416.5,60"/>
		<path class="st8" d="M5,82.3c208.3,0,208.3-20,416.5-20"/>
		<path class="st9" d="M5,148.6c208.3,0,208.3,20,416.5,20"/>
		<path class="st9" d="M5,114c208.3,0,208.3,0,416.5,0"/>
		<path class="st10" d="M5,201.5c208.3,0,208.3,40,416.5,40"/>
		<path class="st11" d="M426.5,1.1c208.3,0,208.3,0,416.5,0"/>
		<path class="st12" d="M426.5,15c208.3,0,208.3,0,416.5,0"/>
		<path class="st13" d="M426.5,43.9c208.3,0,208.3,0,416.5,0"/>
		<path class="st14" d="M426.5,298.9c208.3,0,208.3,0,416.5,0"/>
		<path class="st15" d="M426.5,30c208.3,0,208.3,0,416.5,0"/>
		<path class="st16" d="M426.5,141.3c208.3,0,208.3,0,416.5,0"/>
		<path class="st17" d="M426.5,199.2c208.3,0,208.3,0,416.5,0"/>
		<path class="st18" d="M426.5,86.8c208.3,0,208.3,0,416.5,0"/>
		<path class="st19" d="M426.5,417.5c208.3,0,208.3,0,416.5,0"/>
		<path class="st20" d="M426.5,62.3c208.3,0,208.3,0,416.5,0"/>
		<path class="st21" d="M426.5,168.6c208.3,0,208.3,0,416.5,0"/>
		<path class="st22" d="M426.5,114c208.3,0,208.3,0,416.5,0"/>
		<path class="st23" d="M426.5,241.5c208.3,0,208.3,0,416.5,0"/>
	</g>
	<g>
		<rect x="421.5" y="272.7" class="st24" width="5" height="52.4"/>
		<text transform="matrix(1 0 0 1 371.0078 302.3856)" class="st25 st26 st27">10.1 млн</text>
		<rect x="421.5" y="159.1" class="st28" width="5" height="18.9"/>
		<text transform="matrix(1 0 0 1 372.0078 172.0924)" class="st29 st26 st27">10.6 млн</text>
		<rect x="421.5" y="79" class="st30" width="5" height="15.6"/>
		<text transform="matrix(1 0 0 1 371.0078 90.2742)" class="st29 st26 st27">14.4 млн</text>
		<rect x="421.5" y="27.8" class="st31" width="5" height="4.5"/>
		<text transform="matrix(1 0 0 1 381.5693 33.5293)" class="st29 st26 st32">1.7 млн</text>
		<rect x="421.5" y="12.2" class="st33" width="5" height="5.6"/>
		<text transform="matrix(1 0 0 1 381.5693 18.5146)" class="st29 st26 st32">1.9 млн</text>
		<rect x="421.5" y="220.4" class="st34" width="5" height="42.3"/>
		<text transform="matrix(1 0 0 1 371.0078 245.0249)" class="st25 st26 st27">20.9 млн</text>
		<rect x="421.5" y="133.5" class="st35" width="5" height="15.6"/>
		<text transform="matrix(1 0 0 1 376.5693 144.8196)" class="st29 st26 st27">4.9 млн</text>
		<rect x="421.5" y="335.1" class="st36" width="5" height="164.9"/>
		<text transform="matrix(1 0 0 1 371.0078 421.0367)" class="st25 st26 st37">60.7 млн</text>
		<rect x="421.5" y="104.6" class="st38" width="5" height="18.9"/>
		<text transform="matrix(1 0 0 1 376.5693 117.5469)" class="st29 st26 st27">6.4 млн</text>
		<rect x="421.5" y="42.3" class="st39" width="5" height="3.3"/>
		<text transform="matrix(1 0 0 1 380.1309 47.4296)" class="st29 st26 st32">0.8 млн</text>
		<rect x="421.5" y="188.1" class="st40" width="5" height="22.3"/>
		<text transform="matrix(1 0 0 1 374.5693 202.7082)" class="st29 st26 st27">8.01 млн</text>
		<rect x="421.5" y="55.6" class="st41" width="5" height="13.4"/>
		<text transform="matrix(1 0 0 1 376.5693 65.7874)" class="st29 st26 st27">8.3 млн</text>
		<rect x="421.5" y="0" class="st42" width="5" height="2.2"/>
		<text transform="matrix(1 0 0 1 381.1309 4.6144)" class="st29 st26 st32">0.9 млн</text>
		<g>
			<rect y="60" class="st43" width="5" height="380"/>
			<text transform="matrix(1 0 0 1 11 253.5)" class="st25 st26 st37">150 млн</text>
		</g>
		<g>
			<rect x="843" y="42.3" class="st39" width="5" height="3.3"/>
			<text transform="matrix(1 0 0 1 799.3779 47.4296)" class="st25 st26 st32">Безпека</text>
		</g>
		<g>
			<rect x="843" y="272.7" class="st24" width="5" height="52.4"/>
			<text transform="matrix(1 0 0 1 694.8662 302.3856)" class="st44 st26 st27">Громадянське суспільство</text>
		</g>
		<g>
			<rect x="843" y="27.8" class="st31" width="5" height="4.5"/>
			<text transform="matrix(1 0 0 1 754.2949 33.5293)" class="st25 st26 st32">Дороги транспорт</text>
		</g>
		<g>
			<rect x="843" y="133.5" class="st35" width="5" height="15.6"/>
			<text transform="matrix(1 0 0 1 787.708 144.8196)" class="st25 st26 st27">Екологія</text>
		</g>
		<g>
			<rect x="843" y="12.2" class="st33" width="5" height="5.6"/>
			<text transform="matrix(1 0 0 1 815.1152 18.5146)" class="st25 st26 st32">Інше</text>
		</g>
		<g>
			<rect x="842" y="188.1" class="st40" width="5" height="22.3"/>
			<text transform="matrix(1 0 0 1 592.5771 202.7082)" class="st25 st26 st27">Комунальне господарство, енергозбереження</text>
		</g>
		<g>
			<rect x="843" y="79" class="st30" width="5" height="15.6"/>
			<text transform="matrix(1 0 0 1 744.6836 90.2742)" class="st25 st26 st27">Культура, туризм</text>
		</g>
		<g>
			<rect x="843" y="335.1" class="st36" width="5" height="164.9"/>
			<text transform="matrix(1 0 0 1 800.6582 421.0367)" class="st25 st26 st27">Освіта</text>
		</g>
		<g>
			<rect x="843" y="55.6" class="st41" width="5" height="13.4"/>
			<text transform="matrix(1 0 0 1 746.3779 65.7874)" class="st25 st26 st27">Охорона здоров&apos;я</text>
		</g>
		<g>
			<rect x="843" y="159.1" class="st28" width="5" height="18.9"/>
			<text transform="matrix(1 0 0 1 732.7813 172.0924)" class="st25 st26 st27">Публічний простір</text>
		</g>
		<g>
			<rect x="843" y="104.6" class="st38" width="5" height="18.9"/>
			<text transform="matrix(1 0 0 1 739.876 117.5469)" class="st25 st26 st27">Соціальний захист</text>
		</g>
		<g>
			<rect x="843" y="220.4" class="st34" width="5" height="42.3"/>
			<text transform="matrix(1 0 0 1 800.8799 245.0249)" class="st25 st26 st27">Спорт</text>
		</g>
		<g>
			<rect x="842.7" y="-0.5" class="st42" width="5" height="2.2"/>
			<text transform="matrix(1 0 0 1 827.7646 4.1141)" class="st45 st46 st32">IT</text>
		</g>
	</g>
</g>
<text transform="matrix(1 0 0 1 227 -9.11)" class="st25 st26" style="font-size:15px;">Громадський бюджет -3. Проекти-переможці за категоріями</text>
<text transform="matrix(1 0 0 1 692 523.89)" class="st25 st26 st27">Дані: https://gb.kyivcity.gov.ua</text>
</svg>
